0
SECTION
2
HEADER
9
$INSUNITS
70
4
9
$ACADVER
1
AC1014
9
$HANDSEED
5
FFFF
0
ENDSEC
0
SECTION
2
TABLES
0
TABLE
2
VPORT
5
8
100
AcDbSymbolTable
0
ENDTAB
0
TABLE
2
LTYPE
5
5
100
AcDbSymbolTable
0
LTYPE
5
14
100
AcDbSymbolTableRecord
100
AcDbLinetypeTableRecord
2
BYBLOCK
70
0
0
LTYPE
5
15
100
AcDbSymbolTableRecord
100
AcDbLinetypeTableRecord
2
BYLAYER
70
0
0
LTYPE
5
16
100
AcDbSymbolTableRecord
100
AcDbLinetypeTableRecord
2
DASHED
70
0
3
Dashed __ __ __ __ __ __ __ __ __ __ __ __ __ _
72
65
73
2
40
0.75
49
0.5
74
0
49
-0.25
74
0
0
ENDTAB
0
TABLE
2
LAYER
5
2
100
AcDbSymbolTable
70
2
0
LAYER
5
50
100
AcDbSymbolTableRecord
100
AcDbLayerTableRecord
2
0
70
0
62
7
6
CONTINUOUS
0
ENDTAB
0
TABLE
2
STYLE
5
3
100
AcDbSymbolTable
70
1
0
STYLE
5
11
100
AcDbSymbolTableRecord
100
AcDbTextStyleTableRecord
2
STANDARD
70
0
0
ENDTAB
0
TABLE
2
VIEW
5
6
100
AcDbSymbolTable
70
0
0
ENDTAB
0
TABLE
2
UCS
5
7
100
AcDbSymbolTable
70
0
0
ENDTAB
0
TABLE
2
APPID
5
9
100
AcDbSymbolTable
70
2
0
APPID
5
12
100
AcDbSymbolTableRecord
100
AcDbRegAppTableRecord
2
ACAD
70
0
0
ENDTAB
0
TABLE
2
DIMSTYLE
5
A
100
AcDbSymbolTable
70
1
0
ENDTAB
0
TABLE
2
BLOCK_RECORD
5
1
100
AcDbSymbolTable
70
1
0
BLOCK_RECORD
5
1F
100
AcDbSymbolTableRecord
100
AcDbBlockTableRecord
2
*MODEL_SPACE
0
BLOCK_RECORD
5
1B
100
AcDbSymbolTableRecord
100
AcDbBlockTableRecord
2
*PAPER_SPACE
0
ENDTAB
0
ENDSEC
0
SECTION
2
BLOCKS
0
BLOCK
5
20
100
AcDbEntity
100
AcDbBlockBegin
2
*MODEL_SPACE
0
ENDBLK
5
21
100
AcDbEntity
100
AcDbBlockEnd
0
BLOCK
5
1C
100
AcDbEntity
100
AcDbBlockBegin
2
*PAPER_SPACE
0
ENDBLK
5
1D
100
AcDbEntity
100
AcDbBlockEnd
0
ENDSEC
0
SECTION
2
ENTITIES
0
LINE
5
100
100
AcDbEntity
8
0
100
AcDbLine
10
3.934976154737778
20
12.800000000000002
30
0
11
-7.5899999999999981
21
12.800000000000002
31
0
0
LINE
5
101
100
AcDbEntity
8
0
100
AcDbLine
10
-7.5899999999999981
20
12.800000000000002
30
0
11
-7.5899999999999981
21
1.5999999999999992
31
0
0
LINE
5
102
100
AcDbEntity
8
0
100
AcDbLine
10
7.6500000000000021
20
1.6000000000000014
30
0
11
7.6500000000000012
21
5.0551807223380223
31
0
0
ARC
5
103
100
AcDbEntity
8
0
100
AcDbCircle
10
12.406103588556721
20
12.1
30
0
40
8.4999999999999947
210
0
220
0
230
1
100
AcDbArc
50
175.27617424079119
51
235.97589783821246
0
LINE
5
104
100
AcDbEntity
8
0
100
AcDbLine
10
-6.0000000000000071
20
3.1699999999999759
30
0
11
-6.6400000000000077
21
3.1699999999999759
31
0
6
DASHED
0
LINE
5
105
100
AcDbEntity
8
0
100
AcDbLine
10
-6.6400000000000077
20
3.1699999999999759
30
0
11
-6.6400000000000077
21
2.5299999999999763
31
0
6
DASHED
0
LINE
5
106
100
AcDbEntity
8
0
100
AcDbLine
10
-6.6400000000000077
20
2.5299999999999763
30
0
11
-6.0000000000000071
21
3.1699999999999759
31
0
6
DASHED
0
CIRCLE
5
107
100
AcDbEntity
8
0
100
AcDbCircle
10
-6.3200000000000074
20
2.8499999999999757
30
0
40
0.49999999999999989
210
0
220
0
230
1
0
LINE
5
108
100
AcDbEntity
8
0
100
AcDbLine
10
-6.3200000000000074
20
2.8499999999999757
30
0
11
7.3999998345971107
21
2.8499999999999757
31
0
6
DASHED
0
CIRCLE
5
109
100
AcDbEntity
8
0
100
AcDbCircle
10
-3.7800000000000078
20
2.8499999999999748
30
0
40
0.50000000000000022
210
0
220
0
230
1
0
CIRCLE
5
110
100
AcDbEntity
8
0
100
AcDbCircle
10
-1.240000000000008
20
2.8499999999999757
30
0
40
0.50000000000000033
210
0
220
0
230
1
0
CIRCLE
5
111
100
AcDbEntity
8
0
100
AcDbCircle
10
1.2999999999999921
20
2.8499999999999757
30
0
40
0.50000000000000011
210
0
220
0
230
1
0
CIRCLE
5
112
100
AcDbEntity
8
0
100
AcDbCircle
10
3.8399999999999923
20
2.8499999999999757
30
0
40
0.49999999999999989
210
0
220
0
230
1
0
CIRCLE
5
113
100
AcDbEntity
8
0
100
AcDbCircle
10
6.3799999999999919
20
2.8499999999999757
30
0
40
0.50000000000000033
210
0
220
0
230
1
0
LWPOLYLINE
5
114
100
AcDbEntity
8
0
100
AcDbPolyline
90
8
70
1
43
0.0
10
2.0999999530612175
20
6.3000000000000034
10
2.1999999999998749
20
6.3000000000000034
10
2.1999999999998754
20
11.300000000000004
10
2.0999999530612175
20
11.300000000000004
10
-2.099999953061467
20
11.300000000000004
10
-2.2000000000001245
20
11.300000000000004
10
-2.2000000000001245
20
6.3000000000000034
10
-2.099999953061467
20
6.3000000000000034
0
CIRCLE
5
115
100
AcDbEntity
8
0
100
AcDbCircle
10
-1.2461737171632145e-13
20
8.8000000000000043
30
0
40
1
210
0
220
0
230
1
0
LWPOLYLINE
5
116
100
AcDbEntity
8
0
100
AcDbPolyline
90
4
70
1
43
0.0
10
2.0999999530612175
20
11.300000000000004
10
2.0999999530612175
20
6.3000000000000034
10
-2.099999953061467
20
6.3000000000000034
10
-2.099999953061467
20
11.300000000000004
0
LINE
5
117
100
AcDbEntity
8
0
100
AcDbLine
10
-6.3200000000000074
20
2.8499999999999757
30
0
11
-6.3200000000000074
21
3.8499999139457941
31
0
0
LINE
5
118
100
AcDbEntity
8
0
100
AcDbLine
10
-6.3200000000000074
20
2.8499999999999757
30
0
11
-6.3200000000000074
21
3.8499999139457941
31
0
0
LINE
5
119
100
AcDbEntity
8
0
100
AcDbLine
10
-6.3200000000000074
20
2.8499999999999757
30
0
11
-6.3200000000000074
21
1.8499999586492777
31
0
0
LINE
5
120
100
AcDbEntity
8
0
100
AcDbLine
10
-7.799999825656414
20
0.099999997764825821
30
0
11
9.3999997898936272
21
0.099999997764828333
31
0
6
DASHED
0
LWPOLYLINE
5
121
100
AcDbEntity
8
0
100
AcDbPolyline
90
4
70
1
43
0.0
10
2.0999999530612214
20
-11.100000004470347
10
2.0999999530612201
20
-6.1000000044703491
10
-2.0999999530614644
20
-6.1000000044703491
10
-2.099999953061463
20
-11.100000004470353
0
LINE
5
122
100
AcDbEntity
8
0
100
AcDbLine
10
-6.0000000000000062
20
-2.9700000044703243
30
0
11
-6.6400000000000068
21
-2.9700000044703243
31
0
6
DASHED
0
CIRCLE
5
123
100
AcDbEntity
8
0
100
AcDbCircle
10
-1.2400000000000067
20
-2.6500000044703222
30
0
40
0.50000000000000033
210
0
220
0
230
1
0
ARC
5
124
100
AcDbEntity
8
0
100
AcDbCircle
10
12.406103588556725
20
-11.900000004470343
30
0
40
8.4999999999999982
210
0
220
0
230
1
100
AcDbArc
50
124.02410216178757
51
184.72382575920881
0
LINE
5
125
100
AcDbEntity
8
0
100
AcDbLine
10
3.9349761547377815
20
-12.600000004470346
30
0
11
-7.5899999999999945
21
-12.600000004470351
31
0
0
CIRCLE
5
126
100
AcDbEntity
8
0
100
AcDbCircle
10
-3.7800000000000074
20
-2.6500000044703222
30
0
40
0.50000000000000022
210
0
220
0
230
1
0
CIRCLE
5
127
100
AcDbEntity
8
0
100
AcDbCircle
10
-1.2212453270876722e-13
20
-8.6000000044703491
30
0
40
1
210
0
220
0
230
1
0
LWPOLYLINE
5
128
100
AcDbEntity
8
0
100
AcDbPolyline
90
8
70
1
43
0.0
10
-2.099999953061463
20
-11.100000004470353
10
-2.200000000000121
20
-11.100000004470353
10
-2.2000000000001219
20
-6.1000000044703491
10
-2.0999999530614644
20
-6.1000000044703491
10
2.0999999530612201
20
-6.1000000044703491
10
2.1999999999998776
20
-6.1000000044703491
10
2.1999999999998785
20
-11.100000004470347
10
2.0999999530612214
20
-11.100000004470347
0
LINE
5
129
100
AcDbEntity
8
0
100
AcDbLine
10
-6.3200000000000065
20
-2.650000004470324
30
0
11
-6.3200000000000065
21
-3.6499999184161425
31
0
0
LINE
5
130
100
AcDbEntity
8
0
100
AcDbLine
10
-6.6400000000000068
20
-2.3300000044703237
30
0
11
-6.0000000000000062
21
-2.9700000044703243
31
0
6
DASHED
0
CIRCLE
5
131
100
AcDbEntity
8
0
100
AcDbCircle
10
6.3799999999999919
20
-2.6500000044703196
30
0
40
0.50000000000000033
210
0
220
0
230
1
0
CIRCLE
5
132
100
AcDbEntity
8
0
100
AcDbCircle
10
3.8399999999999923
20
-2.6500000044703209
30
0
40
0.49999999999999989
210
0
220
0
230
1
0
CIRCLE
5
133
100
AcDbEntity
8
0
100
AcDbCircle
10
-6.3200000000000065
20
-2.650000004470324
30
0
40
0.49999999999999989
210
0
220
0
230
1
0
LINE
5
134
100
AcDbEntity
8
0
100
AcDbLine
10
-6.6400000000000068
20
-2.9700000044703243
30
0
11
-6.6400000000000068
21
-2.3300000044703237
31
0
6
DASHED
0
LINE
5
135
100
AcDbEntity
8
0
100
AcDbLine
10
-6.3200000000000065
20
-2.650000004470324
30
0
11
7.3999998345971107
21
-2.6500000044703196
31
0
6
DASHED
0
LINE
5
136
100
AcDbEntity
8
0
100
AcDbLine
10
-6.3200000000000065
20
-2.650000004470324
30
0
11
-6.3200000000000065
21
-3.6499999184161425
31
0
0
LINE
5
137
100
AcDbEntity
8
0
100
AcDbLine
10
-7.5899999999999945
20
-12.600000004470351
30
0
11
-7.5899999999999981
21
-1.4000000044703476
31
0
0
LINE
5
138
100
AcDbEntity
8
0
100
AcDbLine
10
7.6500000000000012
20
-1.4000000044703453
30
0
11
7.6500000000000039
21
-4.8551807268083653
31
0
0
LINE
5
139
100
AcDbEntity
8
0
100
AcDbLine
10
-6.3200000000000065
20
-2.650000004470324
30
0
11
-6.3200000000000074
21
-1.6499999631196256
31
0
0
CIRCLE
5
140
100
AcDbEntity
8
0
100
AcDbCircle
10
1.2999999999999934
20
-2.6500000044703222
30
0
40
0.50000000000000011
210
0
220
0
230
1
0
LINE
5
141
100
AcDbEntity
8
0
100
AcDbLine
10
7.6500000000000012
20
-1.4000000044703453
30
0
11
-7.5899999999999981
21
-1.4000000044703476
31
0
6
DASHED
0
LINE
5
142
100
AcDbEntity
8
0
100
AcDbLine
10
-7.5899999999999981
20
1.5999999999999992
30
0
11
7.6500000000000021
21
1.6000000000000014
31
0
6
DASHED
0
LINE
5
143
100
AcDbEntity
8
0
100
AcDbLine
10
7.6500000000000021
20
1.6000000000000014
30
0
11
7.6500000000000012
21
-1.4000000044703453
31
0
0
LINE
5
144
100
AcDbEntity
8
0
100
AcDbLine
10
-7.5899999999999981
20
1.5999999999999992
30
0
11
-7.5899999999999981
21
-1.4000000044703476
31
0
0
ENDSEC
0
SECTION
2
OBJECTS
0
DICTIONARY
5
C
100
AcDbDictionary
3
ACAD_GROUP
350
D
3
ACAD_MLINESTYLE
350
17
0
DICTIONARY
5
D
100
AcDbDictionary
0
DICTIONARY
5
1A
330
C
100
AcDbDictionary
0
DICTIONARY
5
17
100
AcDbDictionary
0
ENDSEC
0
EOF
