0
SECTION
2
HEADER
9
$INSUNITS
70
4
9
$ACADVER
1
AC1014
9
$HANDSEED
5
FFFF
0
ENDSEC
0
SECTION
2
TABLES
0
TABLE
2
VPORT
5
8
100
AcDbSymbolTable
0
ENDTAB
0
TABLE
2
LTYPE
5
5
100
AcDbSymbolTable
0
LTYPE
5
14
100
AcDbSymbolTableRecord
100
AcDbLinetypeTableRecord
2
BYBLOCK
70
0
0
LTYPE
5
15
100
AcDbSymbolTableRecord
100
AcDbLinetypeTableRecord
2
BYLAYER
70
0
0
LTYPE
5
16
100
AcDbSymbolTableRecord
100
AcDbLinetypeTableRecord
2
DASHED
70
0
3
Dashed __ __ __ __ __ __ __ __ __ __ __ __ __ _
72
65
73
2
40
0.75
49
0.5
74
0
49
-0.25
74
0
0
ENDTAB
0
TABLE
2
LAYER
5
2
100
AcDbSymbolTable
70
2
0
LAYER
5
50
100
AcDbSymbolTableRecord
100
AcDbLayerTableRecord
2
0
70
0
62
7
6
CONTINUOUS
0
ENDTAB
0
TABLE
2
STYLE
5
3
100
AcDbSymbolTable
70
1
0
STYLE
5
11
100
AcDbSymbolTableRecord
100
AcDbTextStyleTableRecord
2
STANDARD
70
0
0
ENDTAB
0
TABLE
2
VIEW
5
6
100
AcDbSymbolTable
70
0
0
ENDTAB
0
TABLE
2
UCS
5
7
100
AcDbSymbolTable
70
0
0
ENDTAB
0
TABLE
2
APPID
5
9
100
AcDbSymbolTable
70
2
0
APPID
5
12
100
AcDbSymbolTableRecord
100
AcDbRegAppTableRecord
2
ACAD
70
0
0
ENDTAB
0
TABLE
2
DIMSTYLE
5
A
100
AcDbSymbolTable
70
1
0
ENDTAB
0
TABLE
2
BLOCK_RECORD
5
1
100
AcDbSymbolTable
70
1
0
BLOCK_RECORD
5
1F
100
AcDbSymbolTableRecord
100
AcDbBlockTableRecord
2
*MODEL_SPACE
0
BLOCK_RECORD
5
1B
100
AcDbSymbolTableRecord
100
AcDbBlockTableRecord
2
*PAPER_SPACE
0
ENDTAB
0
ENDSEC
0
SECTION
2
BLOCKS
0
BLOCK
5
20
100
AcDbEntity
100
AcDbBlockBegin
2
*MODEL_SPACE
0
ENDBLK
5
21
100
AcDbEntity
100
AcDbBlockEnd
0
BLOCK
5
1C
100
AcDbEntity
100
AcDbBlockBegin
2
*PAPER_SPACE
0
ENDBLK
5
1D
100
AcDbEntity
100
AcDbBlockEnd
0
ENDSEC
0
SECTION
2
ENTITIES
0
POINT
5
100
100
AcDbEntity
8
0
100
AcDbPoint
10
24.000000000000039
20
-13.499999761581394
30
-1.1102230246251565e-15
0
POINT
5
101
100
AcDbEntity
8
0
100
AcDbPoint
10
-24.00000000000005
20
-13.499999761581385
30
-1.1102230246251565e-15
0
POINT
5
102
100
AcDbEntity
8
0
100
AcDbPoint
10
24.000000000000028
20
-40.499999761581464
30
1.1102230246251565e-15
0
POINT
5
103
100
AcDbEntity
8
0
100
AcDbPoint
10
-24.000000000000057
20
-40.499999761581449
30
-1.1102230246251565e-15
0
CIRCLE
5
104
100
AcDbEntity
8
0
100
AcDbCircle
10
-30
20
-25
30
0
40
1.2999999999999989
210
0
220
-0
230
1
0
CIRCLE
5
105
100
AcDbEntity
8
0
100
AcDbCircle
10
-30
20
25
30
0
40
1.2999999999999989
210
0
220
-0
230
1
0
CIRCLE
5
106
100
AcDbEntity
8
0
100
AcDbCircle
10
30
20
25
30
0
40
1.2999999999999989
210
0
220
-0
230
1
0
CIRCLE
5
107
100
AcDbEntity
8
0
100
AcDbCircle
10
30
20
-25
30
0
40
1.2999999999999989
210
0
220
-0
230
1
0
LWPOLYLINE
5
108
100
AcDbEntity
8
0
100
AcDbPolyline
90
12
70
1
43
0.0
10
30.999999999999996
20
-11
10
30.999999999999996
20
11
10
43
20
11
10
43.000000000000007
20
25.514701644346172
42
0.56942554315474048
10
-42.999999999999986
20
25.514701644346172
10
-43
20
11
10
-30.999999999999996
20
11
10
-30.999999999999996
20
-11
10
-43
20
-11.000000000000005
10
-43
20
-25.514701644346172
42
0.56942554315474059
10
42.999999999999986
20
-25.51470164434614
10
43
20
-11.000000000000005
0
CIRCLE
5
109
100
AcDbEntity
8
0
100
AcDbCircle
10
30
20
-25
30
0
40
1.2999999999999989
210
0
220
-0
230
1
0
CIRCLE
5
110
100
AcDbEntity
8
0
100
AcDbCircle
10
30
20
25
30
0
40
1.2999999999999989
210
0
220
-0
230
1
0
CIRCLE
5
111
100
AcDbEntity
8
0
100
AcDbCircle
10
-30
20
25
30
0
40
1.2999999999999989
210
0
220
-0
230
1
0
CIRCLE
5
112
100
AcDbEntity
8
0
100
AcDbCircle
10
-30
20
-25
30
0
40
1.2999999999999989
210
0
220
-0
230
1
0
LWPOLYLINE
5
113
100
AcDbEntity
8
0
100
AcDbPolyline
90
12
70
1
43
0.0
10
-30.999999999999996
20
11
10
-30.999999999999996
20
-11
10
-43
20
-11.000000000000005
10
-43
20
-25.514701644346172
42
0.56942554315474037
10
42.999999999999979
20
-25.514701644346172
10
43
20
-11.000000000000005
10
30.999999999999996
20
-11
10
30.999999999999996
20
11
10
43
20
11
10
43.000000000000007
20
25.514701644346172
42
0.56942554315474048
10
-42.999999999999986
20
25.514701644346161
10
-43
20
11
0
LINE
5
114
100
AcDbEntity
8
0
100
AcDbLine
10
-34
20
30.000000447034836
30
0
11
-26.000000387430191
21
30.000000447034836
31
0
0
LINE
5
115
100
AcDbEntity
8
0
100
AcDbLine
10
-26.000000387430191
20
-30.000000447034836
30
0
11
-33.999999999999993
21
-30.000000447034836
31
0
0
LINE
5
116
100
AcDbEntity
8
0
100
AcDbLine
10
34
20
30.000000447034836
30
0
11
26.000000387430191
21
30.000000447034836
31
0
0
LINE
5
117
100
AcDbEntity
8
0
100
AcDbLine
10
26.000000387430191
20
-30.000000447034836
30
0
11
33.999999999999993
21
-30.000000447034836
31
0
0
LINE
5
118
100
AcDbEntity
8
0
100
AcDbLine
10
-29.000000387430191
20
4.4061035885567224
30
1.1102230246251565e-15
11
-29.000000387430191
21
20.406103588556725
31
1.1102230246251565e-15
0
LINE
5
119
100
AcDbEntity
8
0
100
AcDbLine
10
-10.500000387430187
20
4.4061035885567224
30
1.1102230246251565e-15
11
-10.500000387430187
21
20.406103588556725
31
1.1102230246251565e-15
0
LINE
5
120
100
AcDbEntity
8
0
100
AcDbLine
10
10.500000387430187
20
17.069793115101135
30
1.1102230246251565e-15
11
10.921056419603371
21
17.069793115101024
31
1.1102230246251565e-15
0
SPLINE
5
121
100
AcDbEntity
8
0
100
AcDbSpline
70
0
71
3
72
12
73
8
74
0
42
0.000000001
43
0.0000000001
44
0.0000000001
40
0.34297579923244309
40
0.34297579923244309
40
0.34297579923244309
40
0.34297579923244309
40
0.35130060561497212
40
0.35130060561497212
40
0.41842615198636723
40
0.41842615198636723
40
0.42734646242560292
40
0.42734646242560292
40
0.42734646242560292
40
0.42734646242560292
10
10.921056419603371
20
17.069793115101024
30
1.1102230246251565e-15
10
10.913213728731224
20
17.046584563617692
30
1.1102230246251565e-15
10
10.90475297589175
20
17.023422998548781
30
-1.1102230246251565e-15
10
10.822442722186668
20
16.814416032175117
30
1.1102230246251565e-15
10
10.706548750560032
20
16.635228407000273
30
-1.1102230246251565e-15
10
10.541273045974556
20
16.469952702414798
30
-1.1102230246251565e-15
10
10.521043391218504
20
16.450787805672388
30
-1.1102230246251565e-15
10
10.500000387430187
20
16.431966357778219
30
1.1102230246251565e-15
0
LINE
5
122
100
AcDbEntity
8
0
100
AcDbLine
10
10.500000387430187
20
4.4061035885567215
30
1.1102230246251565e-15
11
10.500000387430187
21
20.406103588556725
31
1.1102230246251565e-15
0
LINE
5
123
100
AcDbEntity
8
0
100
AcDbLine
10
29.000000387430191
20
4.4061035885567224
30
1.1102230246251565e-15
11
29.000000387430191
21
20.406103588556725
31
1.1102230246251565e-15
0
LINE
5
124
100
AcDbEntity
8
0
100
AcDbLine
10
-29.000000387430191
20
20.406103588556725
30
1.1102230246251565e-15
11
-10.500000387430187
21
20.406103588556725
31
1.1102230246251565e-15
0
LINE
5
125
100
AcDbEntity
8
0
100
AcDbLine
10
-10.500000387430187
20
4.4061035885567224
30
1.1102230246251565e-15
11
-29.000000387430191
21
4.4061035885567224
31
1.1102230246251565e-15
0
LINE
5
126
100
AcDbEntity
8
0
100
AcDbLine
10
10.500000387430187
20
4.4061035885567215
30
1.1102230246251565e-15
11
29.000000387430191
21
4.4061035885567224
31
1.1102230246251565e-15
0
LINE
5
127
100
AcDbEntity
8
0
100
AcDbLine
10
29.000000387430191
20
20.406103588556725
30
1.1102230246251565e-15
11
10.500000387430187
21
20.406103588556725
31
1.1102230246251565e-15
0
LINE
5
128
100
AcDbEntity
8
0
100
AcDbLine
10
-26.000000387430191
20
30.000000447034836
30
0
11
-26.000000387430191
21
-30.000000447034836
31
0
0
LINE
5
129
100
AcDbEntity
8
0
100
AcDbLine
10
26.000000387430191
20
30.000000447034836
30
0
11
26.000000387430191
21
-30.000000447034836
31
0
0
LINE
5
130
100
AcDbEntity
8
0
100
AcDbLine
10
33.999999999999993
20
-30.000000447034836
30
0
11
34
21
-11
31
0
0
LINE
5
131
100
AcDbEntity
8
0
100
AcDbLine
10
34
20
30.000000447034836
30
0
11
34
21
11.000000163912773
31
0
0
LINE
5
132
100
AcDbEntity
8
0
100
AcDbLine
10
-34
20
30.000000447034836
30
0
11
-34
21
11
31
0
0
LINE
5
133
100
AcDbEntity
8
0
100
AcDbLine
10
-33.999999999999993
20
-30.000000447034836
30
0
11
-34
21
-11.000000163912773
31
0
0
LINE
5
134
100
AcDbEntity
8
0
100
AcDbLine
10
-17.600000387430196
20
7.6500000000000012
30
0
11
-16.000000387430195
21
7.6500000000000012
31
0
0
LINE
5
135
100
AcDbEntity
8
0
100
AcDbLine
10
-17.600000387430196
20
-7.589999999999999
30
1.1102230246251565e-15
11
-16.000000387430195
21
-7.5899999999999981
31
1.1102230246251565e-15
0
LINE
5
136
100
AcDbEntity
8
0
100
AcDbLine
10
-16.000000387430195
20
7.6500000000000012
30
0
11
-16.000000387430195
21
-7.5899999999999981
31
1.1102230246251565e-15
0
LINE
5
137
100
AcDbEntity
8
0
100
AcDbLine
10
-17.600000387430196
20
-7.589999999999999
30
1.1102230246251565e-15
11
-17.600000387430196
21
7.6500000000000012
31
0
0
LINE
5
138
100
AcDbEntity
8
0
100
AcDbLine
10
4.4408920985006262e-15
20
50.000000000000014
30
0
11
1.3322676295501878e-14
21
-50.000000000000007
31
0
6
DASHED
0
CIRCLE
5
139
100
AcDbEntity
8
0
100
AcDbCircle
10
-11.779999864772023
20
-6.3200000000000074
30
0
40
0.49999999999999989
210
0
220
0
230
1
0
LINE
5
140
100
AcDbEntity
8
0
100
AcDbLine
10
-11.779999864772023
20
-6.3200000000000074
30
0
11
-11.779999864772023
21
6.3799999999999919
31
0
6
DASHED
0
CIRCLE
5
141
100
AcDbEntity
8
0
100
AcDbCircle
10
-11.779999864772023
20
6.3799999999999919
30
0
40
0.5
210
0
220
0
230
1
0
CIRCLE
5
142
100
AcDbEntity
8
0
100
AcDbCircle
10
-11.779999864772023
20
-3.7800000000000082
30
0
40
0.50000000000000022
210
0
220
0
230
1
0
CIRCLE
5
143
100
AcDbEntity
8
0
100
AcDbCircle
10
-11.779999864772023
20
-1.2400000000000084
30
0
40
0.49999999999999961
210
0
220
0
230
1
0
CIRCLE
5
144
100
AcDbEntity
8
0
100
AcDbCircle
10
-11.779999864772023
20
1.2999999999999918
30
0
40
0.50000000000000022
210
0
220
0
230
1
0
CIRCLE
5
145
100
AcDbEntity
8
0
100
AcDbCircle
10
-11.779999864772023
20
3.8399999999999919
30
0
40
0.50000000000000089
210
0
220
0
230
1
0
LINE
5
146
100
AcDbEntity
8
0
100
AcDbLine
10
-11.460000000000129
20
6.7000000000000037
30
0
11
-11.460000000000129
21
6.0600000000000032
31
0
6
DASHED
0
LINE
5
147
100
AcDbEntity
8
0
100
AcDbLine
10
-11.460000000000129
20
6.0600000000000032
30
0
11
-12.099999729543924
21
6.0600000000000032
31
0
6
DASHED
0
LINE
5
148
100
AcDbEntity
8
0
100
AcDbLine
10
-12.099999729543924
20
6.0600000000000032
30
0
11
-11.460000000000129
21
6.7000000000000037
31
0
6
DASHED
0
CIRCLE
5
149
100
AcDbEntity
8
0
100
AcDbCircle
10
11.779999864772041
20
6.3799999999999901
30
0
40
0.5
210
0
220
0
230
1
0
CIRCLE
5
150
100
AcDbEntity
8
0
100
AcDbCircle
10
11.779999864772041
20
3.8399999999999945
30
0
40
0.50000000000000089
210
0
220
0
230
1
0
CIRCLE
5
151
100
AcDbEntity
8
0
100
AcDbCircle
10
11.779999864772041
20
1.2999999999999901
30
0
40
0.50000000000000022
210
0
220
0
230
1
0
CIRCLE
5
152
100
AcDbEntity
8
0
100
AcDbCircle
10
11.779999864772041
20
-1.2400000000000055
30
0
40
0.49999999999999961
210
0
220
0
230
1
0
CIRCLE
5
153
100
AcDbEntity
8
0
100
AcDbCircle
10
11.779999864772041
20
-3.78000000000001
30
0
40
0.50000000000000022
210
0
220
0
230
1
0
CIRCLE
5
154
100
AcDbEntity
8
0
100
AcDbCircle
10
11.779999864772041
20
-6.3200000000000056
30
0
40
0.49999999999999989
210
0
220
0
230
1
0
LINE
5
155
100
AcDbEntity
8
0
100
AcDbLine
10
17.600000387430214
20
7.6500000000000057
30
0
11
16.000000387430212
21
7.6500000000000057
31
0
0
LINE
5
156
100
AcDbEntity
8
0
100
AcDbLine
10
16.000000387430212
20
7.6500000000000057
30
0
11
16.000000387430212
21
-7.5899999999999945
31
1.1102230246251565e-15
0
LINE
5
157
100
AcDbEntity
8
0
100
AcDbLine
10
17.600000387430214
20
-7.5900000000000034
30
1.1102230246251565e-15
11
17.600000387430214
21
7.6500000000000057
31
0
0
LINE
5
158
100
AcDbEntity
8
0
100
AcDbLine
10
17.600000387430214
20
-7.5900000000000034
30
1.1102230246251565e-15
11
16.000000387430212
21
-7.5899999999999945
31
1.1102230246251565e-15
0
LINE
5
159
100
AcDbEntity
8
0
100
AcDbLine
10
0.4999999888241291
20
0
30
0
11
-0.4999999888241291
21
0
31
0
6
DASHED
0
LINE
5
160
100
AcDbEntity
8
0
100
AcDbLine
10
0
20
-0.4999999888241291
30
0
11
8.8384248622816016e-15
21
0.4999999888241291
31
0
6
DASHED
0
LWPOLYLINE
5
161
100
AcDbEntity
8
0
100
AcDbPolyline
90
4
70
1
43
0.0
10
24.000000000000039
20
-8.4999997615813943
10
-24.00000000000005
20
-8.4999997615813943
10
-24.000000000000053
20
-35.499999761581464
10
24.000000000000039
20
-35.499999761581464
0
LINE
5
162
100
AcDbEntity
8
0
100
AcDbLine
10
-11.779999864772023
20
6.3799999999999919
30
0
11
-9.7799998647720248
21
6.3799999999999919
31
0
0
LINE
5
163
100
AcDbEntity
8
0
100
AcDbLine
10
-11.779999864772023
20
6.3799999999999919
30
0
11
-11.779999864772023
21
8.3799999999999919
31
0
0
LINE
5
164
100
AcDbEntity
8
0
100
AcDbLine
10
-11.779999864772023
20
6.3799999999999919
30
0
11
-11.779999864772023
21
4.3799999999999919
31
0
0
LINE
5
165
100
AcDbEntity
8
0
100
AcDbLine
10
-11.779999864772023
20
6.3799999999999919
30
0
11
-13.779999864772023
21
6.3799999999999919
31
0
0
LINE
5
166
100
AcDbEntity
8
0
100
AcDbLine
10
11.779999864772041
20
6.3799999999999901
30
0
11
9.7799998647720425
21
6.3799999999999901
31
0
0
LINE
5
167
100
AcDbEntity
8
0
100
AcDbLine
10
11.779999864772041
20
6.3799999999999901
30
0
11
13.779999864772041
21
6.3799999999999901
31
0
0
LINE
5
168
100
AcDbEntity
8
0
100
AcDbLine
10
11.779999864772041
20
6.3799999999999901
30
0
11
11.779999864772041
21
8.3799999999999901
31
0
0
LINE
5
169
100
AcDbEntity
8
0
100
AcDbLine
10
11.779999864772041
20
6.3799999999999901
30
0
11
11.779999864772041
21
4.3799999999999901
31
0
0
ENDSEC
0
SECTION
2
OBJECTS
0
DICTIONARY
5
C
100
AcDbDictionary
3
ACAD_GROUP
350
D
3
ACAD_MLINESTYLE
350
17
0
DICTIONARY
5
D
100
AcDbDictionary
0
DICTIONARY
5
1A
330
C
100
AcDbDictionary
0
DICTIONARY
5
17
100
AcDbDictionary
0
ENDSEC
0
EOF
