0
SECTION
2
HEADER
9
$INSUNITS
70
4
9
$ACADVER
1
AC1014
9
$HANDSEED
5
FFFF
0
ENDSEC
0
SECTION
2
TABLES
0
TABLE
2
VPORT
5
8
100
AcDbSymbolTable
0
ENDTAB
0
TABLE
2
LTYPE
5
5
100
AcDbSymbolTable
0
LTYPE
5
14
100
AcDbSymbolTableRecord
100
AcDbLinetypeTableRecord
2
BYBLOCK
70
0
0
LTYPE
5
15
100
AcDbSymbolTableRecord
100
AcDbLinetypeTableRecord
2
BYLAYER
70
0
0
LTYPE
5
16
100
AcDbSymbolTableRecord
100
AcDbLinetypeTableRecord
2
DASHED
70
0
3
Dashed __ __ __ __ __ __ __ __ __ __ __ __ __ _
72
65
73
2
40
0.75
49
0.5
74
0
49
-0.25
74
0
0
ENDTAB
0
TABLE
2
LAYER
5
2
100
AcDbSymbolTable
70
2
0
LAYER
5
50
100
AcDbSymbolTableRecord
100
AcDbLayerTableRecord
2
0
70
0
62
7
6
CONTINUOUS
0
ENDTAB
0
TABLE
2
STYLE
5
3
100
AcDbSymbolTable
70
1
0
STYLE
5
11
100
AcDbSymbolTableRecord
100
AcDbTextStyleTableRecord
2
STANDARD
70
0
0
ENDTAB
0
TABLE
2
VIEW
5
6
100
AcDbSymbolTable
70
0
0
ENDTAB
0
TABLE
2
UCS
5
7
100
AcDbSymbolTable
70
0
0
ENDTAB
0
TABLE
2
APPID
5
9
100
AcDbSymbolTable
70
2
0
APPID
5
12
100
AcDbSymbolTableRecord
100
AcDbRegAppTableRecord
2
ACAD
70
0
0
ENDTAB
0
TABLE
2
DIMSTYLE
5
A
100
AcDbSymbolTable
70
1
0
ENDTAB
0
TABLE
2
BLOCK_RECORD
5
1
100
AcDbSymbolTable
70
1
0
BLOCK_RECORD
5
1F
100
AcDbSymbolTableRecord
100
AcDbBlockTableRecord
2
*MODEL_SPACE
0
BLOCK_RECORD
5
1B
100
AcDbSymbolTableRecord
100
AcDbBlockTableRecord
2
*PAPER_SPACE
0
ENDTAB
0
ENDSEC
0
SECTION
2
BLOCKS
0
BLOCK
5
20
100
AcDbEntity
100
AcDbBlockBegin
2
*MODEL_SPACE
0
ENDBLK
5
21
100
AcDbEntity
100
AcDbBlockEnd
0
BLOCK
5
1C
100
AcDbEntity
100
AcDbBlockBegin
2
*PAPER_SPACE
0
ENDBLK
5
1D
100
AcDbEntity
100
AcDbBlockEnd
0
ENDSEC
0
SECTION
2
ENTITIES
0
CIRCLE
5
100
100
AcDbEntity
8
0
100
AcDbCircle
10
-20.5
20
5
30
0
40
1.3500000000000023
210
0
220
0
230
1
0
CIRCLE
5
101
100
AcDbEntity
8
0
100
AcDbCircle
10
-20.5
20
1.6181717424346154e-16
30
0
40
1.7499999999999982
210
0
220
0
230
1
0
CIRCLE
5
102
100
AcDbEntity
8
0
100
AcDbCircle
10
20.5
20
1.6181717424346154e-16
30
0
40
1.7499999999999982
210
0
220
0
230
1
0
CIRCLE
5
103
100
AcDbEntity
8
0
100
AcDbCircle
10
20.5
20
5
30
0
40
1.3500000000000023
210
0
220
0
230
1
0
CIRCLE
5
104
100
AcDbEntity
8
0
100
AcDbCircle
10
-2.0816681711721685e-15
20
34
30
0
40
1.3499999999999979
210
0
220
0
230
1
0
CIRCLE
5
105
100
AcDbEntity
8
0
100
AcDbCircle
10
-24.000000219971849
20
-22.50360000861432
30
0
40
1.3500002199718608
210
0
220
0
230
1
0
CIRCLE
5
106
100
AcDbEntity
8
0
100
AcDbCircle
10
24.00000013672571
20
-22.500001474006023
30
0
40
1.3499998632750732
210
0
220
0
230
1
0
LWPOLYLINE
5
107
100
AcDbEntity
8
0
100
AcDbPolyline
90
12
70
1
43
0.0
10
-35
20
-14.798648586948753
10
-35
20
-11.799999999999997
10
-24
20
-11.799999999999997
10
-24
20
11.800000000000001
10
-35
20
11.800000000000001
10
-35
20
14.798648586948742
42
-0.66289575465860717
10
34.999999999999993
20
14.798648586948755
10
35
20
11.799999999999999
10
24
20
11.800000000000001
10
24
20
-11.800000000000001
10
35
20
-11.800000000000001
10
35
20
-14.798648586948747
42
-0.66289575465860717
0
CIRCLE
5
108
100
AcDbEntity
8
0
100
AcDbCircle
10
24.00000013672571
20
-22.500001474006023
30
0
40
1.2999999999999989
210
0
220
0
230
1
0
LWPOLYLINE
5
109
100
AcDbEntity
8
0
100
AcDbPolyline
90
17
70
1
43
0.0
10
17
20
-3.9773487866360648
10
17
20
-21.562194185789171
10
20
20
-21.562194185789171
10
20
20
-26.500001474006023
10
26.000000000000007
20
-26.500001474006023
10
28.000000000000004
20
-24.500001474006019
10
28.000000000000004
20
-18.500001474006027
10
24
20
-18.500001474006027
10
24
20
-6.9999999956999766
10
28.900000000000023
20
-6.9999999956999766
10
28.900000000000013
20
7.0000000043000217
10
24
20
7.0000000043000243
10
24
20
9.9999985259939805
10
18.000000000000004
20
9.9999985259939805
10
18.000000000000004
20
-2.9621941857891709
10
17
20
-2.96219418578917
10
17
20
-3.0399746900993274
0
CIRCLE
5
110
100
AcDbEntity
8
0
100
AcDbCircle
10
-24.00000013672571
20
-22.500001474006023
30
0
40
1.2999999999999989
210
0
220
-0
230
1
0
LWPOLYLINE
5
111
100
AcDbEntity
8
0
100
AcDbPolyline
90
17
70
1
43
0.0
10
-17
20
-3.9773487866360648
10
-17
20
-21.562194185789171
10
-20
20
-21.562194185789171
10
-20
20
-26.500001474006023
10
-26.000000000000007
20
-26.500001474006023
10
-28.000000000000004
20
-24.500001474006019
10
-28.000000000000004
20
-18.500001474006027
10
-24
20
-18.500001474006027
10
-24
20
-6.9999999956999766
10
-28.900000000000023
20
-6.9999999956999766
10
-28.900000000000013
20
7.0000000043000217
10
-24
20
7.0000000043000243
10
-24
20
9.9999985259939805
10
-18.000000000000004
20
9.9999985259939805
10
-18.000000000000004
20
-2.9621941857891709
10
-17
20
-2.96219418578917
10
-17
20
-3.0399746900993274
0
LWPOLYLINE
5
112
100
AcDbEntity
8
0
100
AcDbPolyline
90
8
70
1
43
0.0
10
-29.000000000000004
20
-11.51219418578917
10
-29.000000000000004
20
-13.01219418578917
10
-22
20
-13.012194185789172
10
-22
20
-20.26219418578917
10
-3.5000000000000009
20
-20.26219418578917
10
-3.5000000000000009
20
-4.2621941857891699
10
-22
20
-4.2621941857891699
10
-22
20
-11.51219418578917
0
LWPOLYLINE
5
113
100
AcDbEntity
8
0
100
AcDbPolyline
90
8
70
1
43
0.0
10
29.000000000000004
20
-11.51219418578917
10
29.000000000000004
20
-13.01219418578917
10
22
20
-13.012194185789172
10
22
20
-20.26219418578917
10
3.5000000000000009
20
-20.26219418578917
10
3.5000000000000009
20
-4.2621941857891699
10
22
20
-4.2621941857891699
10
22
20
-11.51219418578917
0
LWPOLYLINE
5
114
100
AcDbEntity
8
0
100
AcDbPolyline
90
4
70
1
43
0.0
10
8.3198703222920773
20
-30.875276191541733
10
11.319870366995573
20
-25.679123691406399
10
16.5160228671309
20
-28.679123736109887
42
-0.99999995529651731
10
13.516022822427413
20
-33.875276236245227
0
LWPOLYLINE
5
115
100
AcDbEntity
8
0
100
AcDbPolyline
90
4
70
1
43
0.0
10
-3.0000000447034791
20
-28.642857151068
10
3.000000044703488
20
-28.642857151068
10
3.0000000447034902
20
-34.64285724047496
42
-0.99999995529651731
10
-3.0000000447034783
20
-34.642857240474967
0
LWPOLYLINE
5
116
100
AcDbEntity
8
0
100
AcDbPolyline
90
4
70
1
43
0.0
10
-8.3198703222920773
20
-30.875276191541733
10
-11.319870366995573
20
-25.679123691406399
10
-16.516022867130907
20
-28.679123736109894
42
0.99999995529651731
10
-13.516022822427413
20
-33.875276236245227
0
LWPOLYLINE
5
117
100
AcDbEntity
8
0
100
AcDbPolyline
90
4
70
1
43
0.0
10
-25
20
15
10
-25
20
22.619999999999997
10
-30
20
22.619999999999997
10
-30
20
14.999999999999998
0
LWPOLYLINE
5
118
100
AcDbEntity
8
0
100
AcDbPolyline
90
4
70
1
43
0.0
10
-25.880000000000003
20
15.920000000000002
10
-26.579999999999998
20
15.920000000000002
10
-26.579999999999998
20
16.620000000000001
10
-25.880000000000003
20
16.619999999999997
0
LWPOLYLINE
5
119
100
AcDbEntity
8
0
100
AcDbPolyline
90
4
70
1
43
0.0
10
-28.420000000000002
20
15.920000000000002
10
-29.119999999999997
20
15.920000000000002
10
-29.119999999999997
20
16.620000000000001
10
-28.420000000000002
20
16.619999999999997
0
LWPOLYLINE
5
120
100
AcDbEntity
8
0
100
AcDbPolyline
90
4
70
1
43
0.0
10
-25.880000000000003
20
18.459999999999997
10
-26.579999999999998
20
18.459999999999997
10
-26.579999999999998
20
19.16
10
-25.880000000000003
20
19.16
0
LWPOLYLINE
5
121
100
AcDbEntity
8
0
100
AcDbPolyline
90
4
70
1
43
0.0
10
-28.419999999999995
20
18.460000000000001
10
-29.119999999999994
20
18.460000000000001
10
-29.119999999999997
20
19.16
10
-28.420000000000002
20
19.16
0
LWPOLYLINE
5
122
100
AcDbEntity
8
0
100
AcDbPolyline
90
4
70
1
43
0.0
10
-25.880000000000003
20
20.999999999999996
10
-26.579999999999998
20
20.999999999999996
10
-26.579999999999998
20
21.699999999999996
10
-25.880000000000003
20
21.699999999999999
0
LWPOLYLINE
5
123
100
AcDbEntity
8
0
100
AcDbPolyline
90
4
70
1
43
0.0
10
-28.419999999999995
20
20.999999999999996
10
-29.119999999999994
20
20.999999999999996
10
-29.119999999999997
20
21.699999999999996
10
-28.420000000000002
20
21.699999999999999
0
LWPOLYLINE
5
124
100
AcDbEntity
8
0
100
AcDbPolyline
90
4
70
1
43
0.0
10
25
20
22.619999999999997
10
25
20
14.999999999999998
10
30
20
15
10
30
20
22.619999999999997
0
LWPOLYLINE
5
125
100
AcDbEntity
8
0
100
AcDbPolyline
90
4
70
1
43
0.0
10
26.579999999999998
20
15.920000000000002
10
25.880000000000003
20
15.920000000000002
10
25.880000000000003
20
16.620000000000001
10
26.579999999999998
20
16.619999999999997
0
LWPOLYLINE
5
126
100
AcDbEntity
8
0
100
AcDbPolyline
90
4
70
1
43
0.0
10
29.119999999999997
20
15.920000000000002
10
28.420000000000002
20
15.920000000000002
10
28.420000000000002
20
16.620000000000001
10
29.119999999999997
20
16.619999999999997
0
LWPOLYLINE
5
127
100
AcDbEntity
8
0
100
AcDbPolyline
90
4
70
1
43
0.0
10
26.579999999999998
20
18.459999999999997
10
25.880000000000003
20
18.459999999999997
10
25.880000000000003
20
19.16
10
26.579999999999998
20
19.16
0
LWPOLYLINE
5
128
100
AcDbEntity
8
0
100
AcDbPolyline
90
4
70
1
43
0.0
10
29.119999999999997
20
18.460000000000001
10
28.420000000000002
20
18.460000000000001
10
28.419999999999995
20
19.16
10
29.119999999999994
20
19.16
0
LWPOLYLINE
5
129
100
AcDbEntity
8
0
100
AcDbPolyline
90
4
70
1
43
0.0
10
26.579999999999998
20
20.999999999999996
10
25.880000000000003
20
20.999999999999996
10
25.880000000000003
20
21.699999999999996
10
26.579999999999998
20
21.699999999999999
0
LWPOLYLINE
5
130
100
AcDbEntity
8
0
100
AcDbPolyline
90
4
70
1
43
0.0
10
29.119999999999997
20
20.999999999999996
10
28.420000000000002
20
20.999999999999996
10
28.419999999999995
20
21.699999999999996
10
29.119999999999994
20
21.699999999999999
0
LWPOLYLINE
5
131
100
AcDbEntity
8
0
100
AcDbPolyline
90
8
70
1
43
0.0
10
-24.000000000000021
20
19.500000000000021
42
0.41421356237309631
10
-21.000000000000021
20
16.500000000000018
10
21.000000000000014
20
16.500000000000028
42
0.41421356237309742
10
24.000000000000021
20
19.500000000000028
10
24.000000000000025
20
26.500000000000021
42
0.41421356237309681
10
21.000000000000018
20
29.500000000000014
10
-21.000000000000021
20
29.500000000000011
42
0.41421356237309681
10
-24.000000000000021
20
26.500000000000014
0
LINE
5
132
100
AcDbEntity
8
0
100
AcDbLine
10
1.0000000149011612
20
-1.0000000149011612
30
0
11
-1.0000000149011612
21
1.0000000149011612
31
0
6
DASHED
0
LINE
5
133
100
AcDbEntity
8
0
100
AcDbLine
10
1.0000000149011612
20
1.0000000149011612
30
0
11
-1.0000000149011612
21
-1.0000000149011612
31
0
6
DASHED
0
LINE
5
134
100
AcDbEntity
8
0
100
AcDbLine
10
30
20
22.619999999999997
30
0
11
25
21
14.999999999999998
31
0
6
DASHED
0
LINE
5
135
100
AcDbEntity
8
0
100
AcDbLine
10
30
20
15
30
0
11
25
21
22.619999999999997
31
0
6
DASHED
0
CIRCLE
5
136
100
AcDbEntity
8
0
100
AcDbCircle
10
27.5
20
18.809999999999999
30
0
40
0.10000000000000089
210
0
220
0
230
1
6
DASHED
0
LINE
5
137
100
AcDbEntity
8
0
100
AcDbLine
10
-25
20
22.619999999999997
30
0
11
-30
21
14.999999999999998
31
0
6
DASHED
0
LINE
5
138
100
AcDbEntity
8
0
100
AcDbLine
10
-25
20
15
30
0
11
-30
21
22.619999999999997
31
0
6
DASHED
0
CIRCLE
5
139
100
AcDbEntity
8
0
100
AcDbCircle
10
-27.5
20
18.809999999999999
30
0
40
0.099999999999999797
210
0
220
0
230
1
6
DASHED
0
ENDSEC
0
SECTION
2
OBJECTS
0
DICTIONARY
5
C
100
AcDbDictionary
3
ACAD_GROUP
350
D
3
ACAD_MLINESTYLE
350
17
0
DICTIONARY
5
D
100
AcDbDictionary
0
DICTIONARY
5
1A
330
C
100
AcDbDictionary
0
DICTIONARY
5
17
100
AcDbDictionary
0
ENDSEC
0
EOF
