0
SECTION
2
HEADER
9
$INSUNITS
70
4
9
$ACADVER
1
AC1014
9
$HANDSEED
5
FFFF
0
ENDSEC
0
SECTION
2
TABLES
0
TABLE
2
VPORT
5
8
100
AcDbSymbolTable
0
ENDTAB
0
TABLE
2
LTYPE
5
5
100
AcDbSymbolTable
0
LTYPE
5
14
100
AcDbSymbolTableRecord
100
AcDbLinetypeTableRecord
2
BYBLOCK
70
0
0
LTYPE
5
15
100
AcDbSymbolTableRecord
100
AcDbLinetypeTableRecord
2
BYLAYER
70
0
0
LTYPE
5
16
100
AcDbSymbolTableRecord
100
AcDbLinetypeTableRecord
2
DASHED
70
0
3
Dashed __ __ __ __ __ __ __ __ __ __ __ __ __ _
72
65
73
2
40
0.75
49
0.5
74
0
49
-0.25
74
0
0
ENDTAB
0
TABLE
2
LAYER
5
2
100
AcDbSymbolTable
70
2
0
LAYER
5
50
100
AcDbSymbolTableRecord
100
AcDbLayerTableRecord
2
0
70
0
62
7
6
CONTINUOUS
0
ENDTAB
0
TABLE
2
STYLE
5
3
100
AcDbSymbolTable
70
1
0
STYLE
5
11
100
AcDbSymbolTableRecord
100
AcDbTextStyleTableRecord
2
STANDARD
70
0
0
ENDTAB
0
TABLE
2
VIEW
5
6
100
AcDbSymbolTable
70
0
0
ENDTAB
0
TABLE
2
UCS
5
7
100
AcDbSymbolTable
70
0
0
ENDTAB
0
TABLE
2
APPID
5
9
100
AcDbSymbolTable
70
2
0
APPID
5
12
100
AcDbSymbolTableRecord
100
AcDbRegAppTableRecord
2
ACAD
70
0
0
ENDTAB
0
TABLE
2
DIMSTYLE
5
A
100
AcDbSymbolTable
70
1
0
ENDTAB
0
TABLE
2
BLOCK_RECORD
5
1
100
AcDbSymbolTable
70
1
0
BLOCK_RECORD
5
1F
100
AcDbSymbolTableRecord
100
AcDbBlockTableRecord
2
*MODEL_SPACE
0
BLOCK_RECORD
5
1B
100
AcDbSymbolTableRecord
100
AcDbBlockTableRecord
2
*PAPER_SPACE
0
ENDTAB
0
ENDSEC
0
SECTION
2
BLOCKS
0
BLOCK
5
20
100
AcDbEntity
100
AcDbBlockBegin
2
*MODEL_SPACE
0
ENDBLK
5
21
100
AcDbEntity
100
AcDbBlockEnd
0
BLOCK
5
1C
100
AcDbEntity
100
AcDbBlockBegin
2
*PAPER_SPACE
0
ENDBLK
5
1D
100
AcDbEntity
100
AcDbBlockEnd
0
ENDSEC
0
SECTION
2
ENTITIES
0
CIRCLE
5
100
100
AcDbEntity
8
0
100
AcDbCircle
10
-24.000000219971849
20
-22.50360000861432
30
0
40
1.3500002199718608
210
0
220
-0
230
1
0
CIRCLE
5
101
100
AcDbEntity
8
0
100
AcDbCircle
10
24.00000013672571
20
-22.500001474006023
30
0
40
1.3499998632750732
210
0
220
-0
230
1
0
LWPOLYLINE
5
102
100
AcDbEntity
8
0
100
AcDbPolyline
90
8
70
1
43
0.0
10
-25.00000037252903
20
15.000000223517418
10
-25.00000037252903
20
28.618175717077925
42
0.11367460239455691
10
-34.999999999999993
20
14.798648586948776
10
-35
20
-14.798648586948753
42
0.66289575465860739
10
35
20
-14.798648586948742
10
35
20
14.798648586948753
42
0.11367460239455685
10
25.000000372529051
20
28.618175717077907
10
25.00000037252903
20
15.000000223517418
0
LWPOLYLINE
5
103
100
AcDbEntity
8
0
100
AcDbPolyline
90
4
70
1
43
0.0
10
-32.500000000000007
20
12.799999999999958
10
-32.500000000000007
20
-12.599999999999962
10
-30.100000000000009
20
-12.599999999999962
10
-30.100000000000009
20
12.799999999999958
0
LWPOLYLINE
5
104
100
AcDbEntity
8
0
100
AcDbPolyline
90
4
70
1
43
0.0
10
-30.95000000000001
20
-11.679999999999966
10
-31.650000000000009
20
-11.679999999999966
10
-31.650000000000009
20
-10.979999999999968
10
-30.95000000000001
20
-10.979999999999968
0
LWPOLYLINE
5
105
100
AcDbEntity
8
0
100
AcDbPolyline
90
4
70
1
43
0.0
10
-30.950000000000006
20
-9.1399999999999721
10
-31.650000000000006
20
-9.1399999999999721
10
-31.650000000000009
20
-8.4399999999999746
10
-30.95000000000001
20
-8.4399999999999746
0
LWPOLYLINE
5
106
100
AcDbEntity
8
0
100
AcDbPolyline
90
4
70
1
43
0.0
10
-30.950000000000006
20
-6.5999999999999819
10
-31.650000000000006
20
-6.5999999999999819
10
-31.650000000000009
20
-5.8999999999999826
10
-30.95000000000001
20
-5.8999999999999826
0
LWPOLYLINE
5
107
100
AcDbEntity
8
0
100
AcDbPolyline
90
4
70
1
43
0.0
10
-30.950000000000006
20
-4.059999999999989
10
-31.650000000000006
20
-4.059999999999989
10
-31.650000000000009
20
-3.3599999999999905
10
-30.95000000000001
20
-3.3599999999999905
0
LWPOLYLINE
5
108
100
AcDbEntity
8
0
100
AcDbPolyline
90
4
70
1
43
0.0
10
-30.950000000000006
20
-1.5199999999999969
10
-31.650000000000006
20
-1.5199999999999969
10
-31.650000000000009
20
-0.82000000000000073
10
-30.95000000000001
20
-0.81999999999999851
0
LWPOLYLINE
5
109
100
AcDbEntity
8
0
100
AcDbPolyline
90
4
70
1
43
0.0
10
-30.950000000000006
20
1.0199999999999965
10
-31.650000000000006
20
1.0199999999999965
10
-31.650000000000009
20
1.7199999999999926
10
-30.95000000000001
20
1.7199999999999926
0
LWPOLYLINE
5
110
100
AcDbEntity
8
0
100
AcDbPolyline
90
4
70
1
43
0.0
10
-30.950000000000006
20
3.5599999999999876
10
-31.650000000000006
20
3.5599999999999876
10
-31.650000000000009
20
4.2599999999999838
10
-30.95000000000001
20
4.2599999999999838
0
LWPOLYLINE
5
111
100
AcDbEntity
8
0
100
AcDbPolyline
90
4
70
1
43
0.0
10
-30.950000000000006
20
6.099999999999981
10
-31.650000000000006
20
6.099999999999981
10
-31.650000000000009
20
6.7999999999999776
10
-30.95000000000001
20
6.7999999999999776
0
LWPOLYLINE
5
112
100
AcDbEntity
8
0
100
AcDbPolyline
90
4
70
1
43
0.0
10
-30.950000000000006
20
8.6399999999999721
10
-31.650000000000006
20
8.6399999999999721
10
-31.650000000000009
20
9.3399999999999679
10
-30.95000000000001
20
9.3399999999999714
0
LWPOLYLINE
5
113
100
AcDbEntity
8
0
100
AcDbPolyline
90
4
70
1
43
0.0
10
-30.950000000000006
20
11.179999999999964
10
-31.650000000000006
20
11.179999999999964
10
-31.650000000000009
20
11.87999999999996
10
-30.950000000000006
20
11.879999999999962
0
LINE
5
114
100
AcDbEntity
8
0
100
AcDbLine
10
-30.95000000000001
20
-10.979999999999968
30
0
11
-31.650000000000009
21
-11.679999999999966
31
0
0
LINE
5
115
100
AcDbEntity
8
0
100
AcDbLine
10
-31.650000000000009
20
-10.979999999999968
30
0
11
-30.95000000000001
21
-11.679999999999966
31
0
0
CIRCLE
5
116
100
AcDbEntity
8
0
100
AcDbCircle
10
-31.300000000000008
20
-11.329999999999966
30
0
40
0.10000000000000044
210
0
220
0
230
1
0
LWPOLYLINE
5
117
100
AcDbEntity
8
0
100
AcDbPolyline
90
4
70
1
43
0.0
10
25
20
15
10
25
20
22.61999999999999
10
29.999999999999996
20
22.61999999999999
10
29.999999999999996
20
15
0
LWPOLYLINE
5
118
100
AcDbEntity
8
0
100
AcDbPolyline
90
4
70
1
43
0.0
10
-25
20
22.61999999999999
10
-25
20
15
10
-29.999999999999996
20
15
10
-29.999999999999996
20
22.61999999999999
0
LINE
5
119
100
AcDbEntity
8
0
100
AcDbLine
10
29.999999999999996
20
22.61999999999999
30
0
11
25
21
15
31
0
0
LINE
5
120
100
AcDbEntity
8
0
100
AcDbLine
10
29.999999999999996
20
15
30
0
11
25
21
22.61999999999999
31
0
0
LINE
5
121
100
AcDbEntity
8
0
100
AcDbLine
10
-25
20
22.61999999999999
30
0
11
-29.999999999999996
21
15
31
0
0
LINE
5
122
100
AcDbEntity
8
0
100
AcDbLine
10
-25
20
15
30
0
11
-29.999999999999996
21
22.61999999999999
31
0
0
CIRCLE
5
123
100
AcDbEntity
8
0
100
AcDbCircle
10
-27.5
20
18.809999999999995
30
0
40
0.1000000000000002
210
0
220
0
230
1
0
CIRCLE
5
124
100
AcDbEntity
8
0
100
AcDbCircle
10
27.5
20
18.809999999999995
30
0
40
0.09999999999999945
210
0
220
0
230
1
0
LINE
5
125
100
AcDbEntity
8
0
100
AcDbLine
10
27.499999999999993
20
-23.000000000000021
30
0
11
27.5
21
10.999999999999982
31
0
0
ARC
5
126
100
AcDbEntity
8
0
100
AcDbCircle
10
24.4999932255514
20
10.999993225551382
30
0
40
3.0000067744562493
210
0
220
-0
230
1
100
AcDbArc
50
0.00012938262853805758
51
89.999870617854398
0
LINE
5
127
100
AcDbEntity
8
0
100
AcDbLine
10
24.5
20
13.999999999999982
30
0
11
-24.5
21
13.999999999999982
31
0
0
ARC
5
128
100
AcDbEntity
8
0
100
AcDbCircle
10
-24.49999661185575
20
10.999996611855675
30
0
40
3.0000033881462191
210
0
220
0
230
1
100
AcDbArc
50
90.000064708715428
51
179.99993529319434
0
LINE
5
129
100
AcDbEntity
8
0
100
AcDbLine
10
-27.499999999999996
20
10.999999999999982
30
0
11
-27.5
21
-23.000000000000021
31
0
0
ARC
5
130
100
AcDbEntity
8
0
100
AcDbCircle
10
-24.500000779600537
20
-23.000000779600526
30
0
40
2.9999992203995647
210
0
220
0
230
1
100
AcDbArc
50
179.99998511394782
51
270.00001488927745
0
LINE
5
131
100
AcDbEntity
8
0
100
AcDbLine
10
-24.5
20
-25.999999999999982
30
0
11
24.5
21
-26.000000000000028
31
0
0
ARC
5
132
100
AcDbEntity
8
0
100
AcDbCircle
10
24.499997393309503
20
-22.999997393309521
30
0
40
3.0000026066916341
210
-0
220
0
230
1
100
AcDbArc
50
270.00004978407804
51
359.99995022419097
0
CIRCLE
5
133
100
AcDbEntity
8
0
100
AcDbCircle
10
24.00000013672571
20
-22.500001474006023
30
0
40
1.3499998632750732
210
0
220
-0
230
1
0
CIRCLE
5
134
100
AcDbEntity
8
0
100
AcDbCircle
10
24.00000013672571
20
10.499998525993984
30
0
40
1.3499998632750732
210
0
220
-0
230
1
0
CIRCLE
5
135
100
AcDbEntity
8
0
100
AcDbCircle
10
-23.999999907836767
20
10.499999091340978
30
0
40
1.3499999078370697
210
0
220
-0
230
1
0
CIRCLE
5
136
100
AcDbEntity
8
0
100
AcDbCircle
10
-24.000000219971849
20
-22.50360000861432
30
0
40
1.3500002199718597
210
0
220
-0
230
1
0
ENDSEC
0
SECTION
2
OBJECTS
0
DICTIONARY
5
C
100
AcDbDictionary
3
ACAD_GROUP
350
D
3
ACAD_MLINESTYLE
350
17
0
DICTIONARY
5
D
100
AcDbDictionary
0
DICTIONARY
5
1A
330
C
100
AcDbDictionary
0
DICTIONARY
5
17
100
AcDbDictionary
0
ENDSEC
0
EOF
